<svg width="16" height="16" viewBox="0 0 16 16" fill="none" xmlns="http://www.w3.org/2000/svg">
<g clip-path="url(#clip0_10650_35561)">
<path d="M0 8C0 3.58172 3.58172 0 8 0C12.4183 0 16 3.58172 16 8C16 12.4183 12.4183 16 8 16C3.58172 16 0 12.4183 0 8Z" fill="#061236"/>
<g clip-path="url(#clip1_10650_35561)">
<path opacity="0.2" d="M8 14C6.81331 14 5.65328 13.6481 4.66658 12.9888C3.67989 12.3295 2.91085 11.3925 2.45673 10.2961C2.0026 9.19975 1.88378 7.99335 2.11529 6.82946C2.3468 5.66558 2.91825 4.59648 3.75736 3.75736C4.59648 2.91825 5.66558 2.3468 6.82946 2.11529C7.99335 1.88378 9.19975 2.0026 10.2961 2.45673C11.3925 2.91085 12.3295 3.67989 12.9888 4.66658C13.6481 5.65328 14 6.81331 14 8C13.9983 9.59077 13.3656 11.1159 12.2407 12.2407C11.1159 13.3656 9.59077 13.9983 8 14ZM8 3C7.0111 3 6.0444 3.29325 5.22215 3.84265C4.39991 4.39206 3.75904 5.17295 3.38061 6.08659C3.00217 7.00022 2.90315 8.00555 3.09608 8.97545C3.289 9.94536 3.76521 10.8363 4.46447 11.5355C5.16373 12.2348 6.05465 12.711 7.02455 12.9039C7.99446 13.0969 8.99979 12.9978 9.91342 12.6194C10.8271 12.241 11.6079 11.6001 12.1574 10.7779C12.7068 9.95561 13 8.98891 13 8C12.9985 6.67437 12.4713 5.40344 11.5339 4.46608C10.5966 3.52871 9.32564 3.00146 8 3Z" fill="#91C5FF"/>
<path opacity="0.5" d="M8.5 9.50027H7.5V9.12877C7.49261 8.77598 7.57978 8.42764 7.75246 8.11992C7.92514 7.81219 8.17704 7.55628 8.482 7.37877C8.66674 7.27702 8.81457 7.11947 8.90438 6.92864C8.99418 6.73781 9.02135 6.52347 8.982 6.31627C8.94304 6.11887 8.84612 5.93757 8.70362 5.79551C8.56113 5.65346 8.37952 5.55711 8.182 5.51877C8.03786 5.49209 7.88962 5.49743 7.74777 5.5344C7.60592 5.57137 7.47394 5.63908 7.36116 5.73273C7.24838 5.82637 7.15757 5.94367 7.09516 6.07631C7.03275 6.20894 7.00026 6.35368 7 6.50027H6C6.00012 6.14752 6.09354 5.80108 6.27078 5.49609C6.44801 5.19111 6.70276 4.93842 7.00917 4.76366C7.31559 4.58891 7.66278 4.4983 8.01551 4.50104C8.36825 4.50377 8.71399 4.59975 9.01765 4.77924C9.32132 4.95873 9.57212 5.21534 9.7446 5.52304C9.91708 5.83074 10.0051 6.17858 9.99977 6.53129C9.99442 6.884 9.89589 7.22902 9.71416 7.53135C9.53243 7.83368 9.27397 8.08257 8.965 8.25277C8.81737 8.34507 8.69667 8.47463 8.61503 8.62842C8.5334 8.7822 8.49373 8.95478 8.5 9.12877V9.50027Z" fill="#91C5FF"/>
<path opacity="0.5" d="M8.5 10.5H7.5V11.5H8.5V10.5Z" fill="#91C5FF"/>
</g>
</g>
<defs>
<clipPath id="clip0_10650_35561">
<path d="M0 8C0 3.58172 3.58172 0 8 0C12.4183 0 16 3.58172 16 8C16 12.4183 12.4183 16 8 16C3.58172 16 0 12.4183 0 8Z" fill="white"/>
</clipPath>
<clipPath id="clip1_10650_35561">
<rect width="12" height="12" fill="white" transform="translate(2 2)"/>
</clipPath>
</defs>
</svg>
